<?xml version="1.0" encoding="UTF-8" standalone="no"?>
<!-- Created with Inkscape (http://www.inkscape.org/) -->

<svg
   xmlns:dc="http://purl.org/dc/elements/1.1/"
   xmlns:cc="http://creativecommons.org/ns#"
   xmlns:rdf="http://www.w3.org/1999/02/22-rdf-syntax-ns#"
   xmlns:svg="http://www.w3.org/2000/svg"
   xmlns="http://www.w3.org/2000/svg"
   xmlns:sodipodi="http://sodipodi.sourceforge.net/DTD/sodipodi-0.dtd"
   xmlns:inkscape="http://www.inkscape.org/namespaces/inkscape"
   id="svg2985"
   version="1.1"
   inkscape:version="0.48.5 r10040"
   width="295"
   height="93.75"
   xml:space="preserve"
   sodipodi:docname="atdlogoclt.png"><metadata
     id="metadata2991"><rdf:RDF><cc:Work
         rdf:about=""><dc:format>image/svg+xml</dc:format><dc:type
           rdf:resource="http://purl.org/dc/dcmitype/StillImage" /><dc:title></dc:title></cc:Work></rdf:RDF></metadata><defs
     id="defs2989"><clipPath
       clipPathUnits="userSpaceOnUse"
       id="clipPath3003"><path
         d="M 0,75 236,75 236,0 0,0 0,75 z"
         id="path3005" /></clipPath><linearGradient
       x1="0"
       y1="0"
       x2="1"
       y2="0"
       gradientUnits="userSpaceOnUse"
       gradientTransform="matrix(60.167343,21.899122,21.899122,-60.167343,11.987915,19.51421)"
       spreadMethod="pad"
       id="linearGradient3139"><stop
         style="stop-opacity:1;stop-color:#fdba30"
         offset="0"
         id="stop3141" /><stop
         style="stop-opacity:1;stop-color:#f05838"
         offset="0.5"
         id="stop3143" /><stop
         style="stop-opacity:1;stop-color:#bf3639"
         offset="1"
         id="stop3145" /></linearGradient></defs><sodipodi:namedview
     pagecolor="#ffffff"
     bordercolor="#666666"
     borderopacity="1"
     objecttolerance="10"
     gridtolerance="10"
     guidetolerance="10"
     inkscape:pageopacity="0"
     inkscape:pageshadow="2"
     inkscape:window-width="1280"
     inkscape:window-height="961"
     id="namedview2987"
     showgrid="false"
     inkscape:zoom="4.4642744"
     inkscape:cx="139.90407"
     inkscape:cy="47.85775"
     inkscape:window-x="-8"
     inkscape:window-y="-8"
     inkscape:window-maximized="1"
     inkscape:current-layer="g2993" /><g
     id="g2993"
     inkscape:groupmode="layer"
     inkscape:label="Charlotte Area"
     transform="matrix(1.25,0,0,-1.25,0,93.75)"><g
   id="g2995"
   transform="translate(90.4858,33.577)"><path
     d="m 0,0 -0.953,-2.693 1.905,0 L 0,0 z m 1.995,-5.63 -0.671,1.843 -2.641,0 -0.638,-1.773 -1.327,0 2.623,7.017 1.427,0 2.563,-6.844 -1.336,-0.243 z"
     style="fill:#606164;fill-opacity:1;fill-rule:nonzero;stroke:none"
     id="path2997" /></g><g
   id="g2999"><g
     id="g3001"
     clip-path="url(#clipPath3003)"><g
       id="g3007"
       transform="translate(96.2965,27.9254)"><path
         d="m 0,0 c -0.71,0 -1.439,0.224 -1.904,0.476 l 0.162,1.013 c 0.526,-0.344 1.175,-0.577 1.783,-0.577 0.526,0 0.809,0.193 0.809,0.507 0,0.345 -0.212,0.486 -0.992,0.679 -1.185,0.303 -1.681,0.647 -1.681,1.539 0,0.839 0.669,1.439 1.803,1.439 0.637,0 1.225,-0.123 1.71,-0.347 L 1.529,3.717 C 1.043,3.991 0.465,4.163 -0.02,4.163 -0.475,4.163 -0.7,3.991 -0.7,3.717 -0.7,3.453 -0.517,3.312 0.212,3.12 1.478,2.795 1.974,2.451 1.974,1.53 1.974,0.567 1.285,0 0,0"
         style="fill:#606164;fill-opacity:1;fill-rule:nonzero;stroke:none"
         id="path3009"
         inkscape:connector-curvature="0" /></g><g
       id="g3011"
       transform="translate(100.8417,27.9254)"><path
         d="m 0,0 c -0.708,0 -1.437,0.224 -1.903,0.476 l 0.162,1.013 c 0.529,-0.344 1.175,-0.577 1.782,-0.577 0.526,0 0.812,0.193 0.812,0.507 0,0.345 -0.214,0.486 -0.993,0.679 -1.185,0.303 -1.681,0.647 -1.681,1.539 0,0.839 0.669,1.439 1.802,1.439 0.639,0 1.225,-0.123 1.711,-0.347 L 1.53,3.717 C 1.044,3.991 0.467,4.163 -0.019,4.163 -0.475,4.163 -0.698,3.991 -0.698,3.717 -0.698,3.453 -0.514,3.312 0.215,3.12 1.479,2.795 1.977,2.451 1.977,1.53 1.977,0.567 1.288,0 0,0"
         style="fill:#606164;fill-opacity:1;fill-rule:nonzero;stroke:none"
         id="path3013"
         inkscape:connector-curvature="0" /></g><g
       id="g3015"
       transform="translate(105.8141,32.0059)"><path
         d="m 0,0 c -0.72,0 -1.105,-0.638 -1.105,-1.548 0,-0.891 0.396,-1.549 1.105,-1.549 0.75,0 1.134,0.636 1.134,1.549 C 1.134,-0.646 0.729,0 0,0 m 0,-4.09 c -1.326,0 -2.289,0.951 -2.289,2.542 0,1.588 0.972,2.552 2.299,2.552 1.337,0 2.309,-0.964 2.309,-2.552 C 2.319,-3.139 1.337,-4.09 0,-4.09"
         style="fill:#606164;fill-opacity:1;fill-rule:nonzero;stroke:none"
         id="path3017"
         inkscape:connector-curvature="0" /></g><g
       id="g3019"
       transform="translate(111.1794,27.9254)"><path
         d="m 0,0 c -1.355,0 -2.317,0.912 -2.317,2.512 0,1.701 1.062,2.573 2.361,2.573 0.656,0 1.142,-0.172 1.527,-0.416 L 1.398,3.576 c -0.414,0.312 -0.81,0.455 -1.286,0.455 -0.698,0 -1.204,-0.518 -1.204,-1.49 0,-1.011 0.546,-1.496 1.285,-1.496 0.427,0 0.811,0.111 1.266,0.464 L 1.621,0.476 C 1.125,0.133 0.62,0 0,0"
         style="fill:#606164;fill-opacity:1;fill-rule:nonzero;stroke:none"
         id="path3021"
         inkscape:connector-curvature="0" /></g><g
       id="g3023"
       transform="translate(113.8222,28.017)"><path
         d="m 0,0 0,3.179 0,1.712 1.216,0 L 1.216,0 0,0 z m 0.619,5.712 c -0.406,0 -0.73,0.284 -0.73,0.688 0,0.416 0.324,0.708 0.73,0.708 0.395,0 0.72,-0.292 0.72,-0.708 0,-0.404 -0.325,-0.688 -0.72,-0.688"
         style="fill:#606164;fill-opacity:1;fill-rule:nonzero;stroke:none"
         id="path3025"
         inkscape:connector-curvature="0" /></g><g
       id="g3027"
       transform="translate(118.9967,30.4577)"><path
         d="m 0,0 c -1.408,-0.173 -1.742,-0.589 -1.742,-1.053 0,-0.356 0.222,-0.567 0.598,-0.567 0.414,0 0.81,0.193 1.144,0.527 L 0,0 z m 0.171,-2.441 -0.1,0.638 c -0.395,-0.415 -0.901,-0.739 -1.63,-0.739 -0.832,0 -1.386,0.507 -1.386,1.358 C -2.945,0 -1.974,0.517 0,0.709 L 0,0.851 C 0,1.378 -0.305,1.58 -0.84,1.58 -1.408,1.58 -1.945,1.418 -2.472,1.185 l -0.152,0.971 c 0.569,0.225 1.165,0.396 1.945,0.396 1.265,0 1.895,-0.466 1.895,-1.642 l 0,-3.351 -1.045,0 z"
         style="fill:#606164;fill-opacity:1;fill-rule:nonzero;stroke:none"
         id="path3029"
         inkscape:connector-curvature="0" /></g><g
       id="g3031"
       transform="translate(123.279,27.9367)"><path
         d="m 0,0 c -0.963,0 -1.61,0.354 -1.61,1.468 l 0,2.511 -0.689,0 0,0.992 0.689,0 0,1.55 1.195,0.182 0,-1.732 1.001,0 0.153,-0.992 -1.154,0 0,-2.31 c 0,-0.393 0.183,-0.605 0.649,-0.605 0.14,0 0.272,0.008 0.384,0.039 L 0.77,0.08 C 0.577,0.04 0.355,0 0,0"
         style="fill:#606164;fill-opacity:1;fill-rule:nonzero;stroke:none"
         id="path3033"
         inkscape:connector-curvature="0" /></g><g
       id="g3035"
       transform="translate(125.0098,28.017)"><path
         d="m 0,0 0,2.959 0,1.932 1.217,0 L 1.217,0 0,0 z m 0.618,5.712 c -0.405,0 -0.729,0.284 -0.729,0.688 0,0.416 0.324,0.708 0.729,0.708 0.395,0 0.719,-0.292 0.719,-0.708 0,-0.404 -0.324,-0.688 -0.719,-0.688"
         style="fill:#606164;fill-opacity:1;fill-rule:nonzero;stroke:none"
         id="path3037"
         inkscape:connector-curvature="0" /></g><g
       id="g3039"
       transform="translate(129.5458,32.0059)"><path
         d="m 0,0 c -0.718,0 -1.104,-0.638 -1.104,-1.548 0,-0.891 0.395,-1.549 1.104,-1.549 0.751,0 1.134,0.636 1.134,1.549 C 1.134,-0.646 0.729,0 0,0 m 0,-4.09 c -1.326,0 -2.288,0.951 -2.288,2.542 0,1.588 0.973,2.552 2.298,2.552 1.336,0 2.31,-0.964 2.31,-2.552 C 2.32,-3.139 1.338,-4.09 0,-4.09"
         style="fill:#606164;fill-opacity:1;fill-rule:nonzero;stroke:none"
         id="path3041"
         inkscape:connector-curvature="0" /></g><g
       id="g3043"
       transform="translate(135.8025,28.017)"><path
         d="m 0,0 0,3.201 c 0,0.425 -0.181,0.718 -0.627,0.718 -0.384,0 -0.76,-0.242 -1.113,-0.618 l 0,-3.301 -1.216,0 0,4.891 1.032,0 0.112,-0.689 c 0.456,0.436 0.973,0.791 1.631,0.791 0.911,0 1.397,-0.558 1.397,-1.468 L 1.216,0 0,0 z"
         style="fill:#606164;fill-opacity:1;fill-rule:nonzero;stroke:none"
         id="path3045"
         inkscape:connector-curvature="0" /></g><g
       id="g3047"
       transform="translate(142.5264,34.2451)"><path
         d="m 0,0 c -0.416,0 -0.638,-0.182 -0.638,-0.618 l 0,-0.719 0.931,0 0.154,-0.992 -1.085,0 0,-3.899 -1.205,0 0,3.899 -0.71,0 0,0.992 0.71,0 0,0.842 c 0,1.083 0.688,1.488 1.691,1.488 0.212,0 0.375,-0.021 0.495,-0.041 L 0.506,-0.04 C 0.386,-0.02 0.203,0 0,0"
         style="fill:#606164;fill-opacity:1;fill-rule:nonzero;stroke:none"
         id="path3049"
         inkscape:connector-curvature="0" /></g><g
       id="g3051"
       transform="translate(145.6626,32.0059)"><path
         d="m 0,0 c -0.718,0 -1.102,-0.638 -1.102,-1.548 0,-0.891 0.394,-1.549 1.102,-1.549 0.75,0 1.135,0.636 1.135,1.549 C 1.135,-0.646 0.729,0 0,0 m 0,-4.09 c -1.325,0 -2.288,0.951 -2.288,2.542 0,1.588 0.973,2.552 2.299,2.552 C 1.348,1.004 2.32,0.04 2.32,-1.548 2.32,-3.139 1.337,-4.09 0,-4.09"
         style="fill:#606164;fill-opacity:1;fill-rule:nonzero;stroke:none"
         id="path3053"
         inkscape:connector-curvature="0" /></g><g
       id="g3055"
       transform="translate(150.1784,30.822)"><path
         d="m 0,0 0,-2.805 -1.215,0 0,4.891 1.033,0 0.151,-0.982 C 0.294,1.672 0.782,2.148 1.541,2.188 L 1.732,0.983 C 0.973,0.932 0.344,0.527 0,0"
         style="fill:#606164;fill-opacity:1;fill-rule:nonzero;stroke:none"
         id="path3057"
         inkscape:connector-curvature="0" /></g><g
       id="g3059"
       transform="translate(90.7071,22.992)"><path
         d="m 0,0 0,-5.823 -1.346,0 0,5.823 -2.077,0 0,1.165 5.428,0 L 2.198,0 0,0 z"
         style="fill:#606164;fill-opacity:1;fill-rule:nonzero;stroke:none"
         id="path3061"
         inkscape:connector-curvature="0" /></g><g
       id="g3063"
       transform="translate(95.2336,19.6085)"><path
         d="m 0,0 c -1.407,-0.171 -1.742,-0.587 -1.742,-1.051 0,-0.356 0.223,-0.568 0.599,-0.568 0.414,0 0.809,0.192 1.143,0.526 L 0,0 z M 0.173,-2.44 0.07,-1.8 c -0.394,-0.416 -0.9,-0.74 -1.63,-0.74 -0.829,0 -1.387,0.505 -1.387,1.356 C -2.947,0 -1.974,0.518 0,0.71 L 0,0.851 C 0,1.379 -0.304,1.58 -0.84,1.58 -1.407,1.58 -1.944,1.42 -2.47,1.186 L -2.624,2.16 c 0.568,0.222 1.165,0.393 1.946,0.393 1.266,0 1.894,-0.465 1.894,-1.641 l 0,-3.352 -1.043,0 z"
         style="fill:#606164;fill-opacity:1;fill-rule:nonzero;stroke:none"
         id="path3065"
         inkscape:connector-curvature="0" /></g><g
       id="g3067"
       transform="translate(97.7026,17.1689)"><path
         d="M 0,0 0,5.749 0,7.119 1.215,7.312 1.215,0 0,0 z"
         style="fill:#606164;fill-opacity:1;fill-rule:nonzero;stroke:none"
         id="path3069"
         inkscape:connector-curvature="0" /></g><g
       id="g3071"
       transform="translate(102.1479,21.3206)"><path
         d="m 0,0 c -0.485,0 -0.881,-0.384 -0.971,-1.182 l 1.943,0 C 0.892,-0.426 0.588,0 0,0 m 2.147,-1.944 -3.139,0 c 0.061,-0.952 0.568,-1.367 1.317,-1.367 0.627,0 1.144,0.233 1.681,0.609 L 2.147,-3.656 C 1.621,-4.021 0.983,-4.253 0.194,-4.253 c -1.367,0 -2.391,0.78 -2.391,2.541 0,1.59 0.953,2.553 2.227,2.553 1.468,0 2.127,-1.103 2.127,-2.491 0,-0.103 -0.01,-0.223 -0.01,-0.294"
         style="fill:#606164;fill-opacity:1;fill-rule:nonzero;stroke:none"
         id="path3073"
         inkscape:connector-curvature="0" /></g><g
       id="g3075"
       transform="translate(108.2447,17.1689)"><path
         d="m 0,0 0,3.201 c 0,0.425 -0.183,0.718 -0.629,0.718 -0.384,0 -0.76,-0.242 -1.114,-0.618 l 0,-3.301 -1.215,0 0,4.892 1.032,0 0.112,-0.689 c 0.456,0.436 0.972,0.79 1.631,0.79 0.911,0 1.398,-0.557 1.398,-1.469 L 1.215,0 0,0 z"
         style="fill:#606164;fill-opacity:1;fill-rule:nonzero;stroke:none"
         id="path3077"
         inkscape:connector-curvature="0" /></g><g
       id="g3079"
       transform="translate(112.5371,17.0886)"><path
         d="m 0,0 c -0.964,0 -1.611,0.354 -1.611,1.469 l 0,2.51 -0.688,0 0,0.994 0.688,0 0,1.549 1.195,0.182 0,-1.731 1.003,0 0.151,-0.994 -1.154,0 0,-2.308 c 0,-0.394 0.183,-0.608 0.648,-0.608 0.143,0 0.274,0.01 0.387,0.041 L 0.77,0.08 C 0.577,0.04 0.354,0 0,0"
         style="fill:#606164;fill-opacity:1;fill-rule:nonzero;stroke:none"
         id="path3081"
         inkscape:connector-curvature="0" /></g><g
       id="g3083"
       transform="translate(118.7975,23.0536)"><path
         d="m 0,0 -0.87,0 0,-4.781 0.85,0 c 1.471,0 2.349,0.749 2.349,2.389 C 2.329,-0.78 1.399,0 0,0 m 0.011,-5.885 -2.217,0 0,6.988 2.217,0 c 2.432,0 3.685,-1.427 3.685,-3.484 0,-2.075 -1.303,-3.504 -3.685,-3.504"
         style="fill:#606164;fill-opacity:1;fill-rule:nonzero;stroke:none"
         id="path3085"
         inkscape:connector-curvature="0" /></g><g
       id="g3087"
       transform="translate(125.4566,21.3206)"><path
         d="m 0,0 c -0.488,0 -0.881,-0.384 -0.973,-1.182 l 1.945,0 C 0.89,-0.426 0.586,0 0,0 m 2.146,-1.944 -3.14,0 c 0.061,-0.952 0.569,-1.367 1.317,-1.367 0.628,0 1.145,0.233 1.682,0.609 L 2.146,-3.656 C 1.619,-4.021 0.981,-4.253 0.192,-4.253 c -1.368,0 -2.391,0.78 -2.391,2.541 0,1.59 0.953,2.553 2.23,2.553 1.467,0 2.125,-1.103 2.125,-2.491 0,-0.103 -0.01,-0.223 -0.01,-0.294"
         style="fill:#606164;fill-opacity:1;fill-rule:nonzero;stroke:none"
         id="path3089"
         inkscape:connector-curvature="0" /></g><g
       id="g3091"
       transform="translate(130.9135,17.1477)"><path
         d="m 0,0 -1.184,0 -1.712,4.821 1.277,0.163 1.092,-3.474 1.053,3.404 1.205,0 L 0,0 z"
         style="fill:#606164;fill-opacity:1;fill-rule:nonzero;stroke:none"
         id="path3093"
         inkscape:connector-curvature="0" /></g><g
       id="g3095"
       transform="translate(135.2031,21.3206)"><path
         d="m 0,0 c -0.484,0 -0.878,-0.384 -0.971,-1.182 l 1.945,0 C 0.893,-0.426 0.589,0 0,0 m 2.148,-1.944 -3.14,0 c 0.062,-0.952 0.568,-1.367 1.319,-1.367 0.627,0 1.143,0.233 1.679,0.609 L 2.148,-3.656 C 1.623,-4.021 0.985,-4.253 0.194,-4.253 c -1.366,0 -2.39,0.78 -2.39,2.541 0,1.59 0.954,2.553 2.228,2.553 1.469,0 2.128,-1.103 2.128,-2.491 0,-0.103 -0.012,-0.223 -0.012,-0.294"
         style="fill:#606164;fill-opacity:1;fill-rule:nonzero;stroke:none"
         id="path3097"
         inkscape:connector-curvature="0" /></g><g
       id="g3099"
       transform="translate(138.393,17.1689)"><path
         d="M 0,0 0,5.418 0,7.119 1.216,7.312 1.216,0 0,0 z"
         style="fill:#606164;fill-opacity:1;fill-rule:nonzero;stroke:none"
         id="path3101"
         inkscape:connector-curvature="0" /></g><g
       id="g3103"
       transform="translate(142.93,21.1578)"><path
         d="m 0,0 c -0.719,0 -1.103,-0.637 -1.103,-1.549 0,-0.89 0.396,-1.548 1.103,-1.548 0.749,0 1.134,0.638 1.134,1.548 C 1.134,-0.648 0.729,0 0,0 m 0,-4.09 c -1.327,0 -2.289,0.952 -2.289,2.541 0,1.59 0.972,2.553 2.299,2.553 1.337,0 2.309,-0.963 2.309,-2.553 C 2.319,-3.138 1.338,-4.09 0,-4.09"
         style="fill:#606164;fill-opacity:1;fill-rule:nonzero;stroke:none"
         id="path3105"
         inkscape:connector-curvature="0" /></g><g
       id="g3107"
       transform="translate(148.5488,21.0874)"><path
         d="m 0,0 c -0.435,0 -0.778,-0.273 -1.103,-0.688 l 0,-2.097 c 0.294,-0.141 0.528,-0.212 0.942,-0.212 0.627,0 1.102,0.517 1.102,1.59 C 0.941,-0.465 0.548,0 0,0 m 0.031,-3.968 c -0.466,0 -0.84,0.081 -1.134,0.192 l 0,-1.842 -1.216,-0.183 0,6.775 1.034,0 0.111,-0.671 c 0.346,0.397 0.82,0.771 1.498,0.771 1.024,0 1.843,-0.771 1.843,-2.41 0,-1.823 -1.012,-2.632 -2.136,-2.632"
         style="fill:#606164;fill-opacity:1;fill-rule:nonzero;stroke:none"
         id="path3109"
         inkscape:connector-curvature="0" /></g><g
       id="g3111"
       transform="translate(157.5112,17.1689)"><path
         d="m 0,0 0,3.201 c 0,0.425 -0.153,0.718 -0.597,0.718 -0.375,0 -0.731,-0.242 -1.086,-0.608 l 0,-3.311 -1.215,0 0,3.201 c 0,0.425 -0.16,0.718 -0.607,0.718 -0.374,0 -0.729,-0.242 -1.083,-0.608 l 0,-3.311 -1.215,0 0,4.892 1.033,0 0.112,-0.689 c 0.455,0.436 0.952,0.79 1.609,0.79 0.699,0 1.073,-0.315 1.255,-0.79 0.436,0.436 0.972,0.79 1.631,0.79 0.922,0 1.378,-0.557 1.378,-1.469 L 1.215,0 0,0 z"
         style="fill:#606164;fill-opacity:1;fill-rule:nonzero;stroke:none"
         id="path3113"
         inkscape:connector-curvature="0" /></g><g
       id="g3115"
       transform="translate(161.8837,21.3206)"><path
         d="m 0,0 c -0.486,0 -0.882,-0.384 -0.974,-1.182 l 1.947,0 C 0.891,-0.426 0.586,0 0,0 m 2.146,-1.944 -3.138,0 c 0.06,-0.952 0.566,-1.367 1.317,-1.367 0.628,0 1.144,0.233 1.679,0.609 L 2.146,-3.656 C 1.62,-4.021 0.982,-4.253 0.193,-4.253 c -1.367,0 -2.39,0.78 -2.39,2.541 0,1.59 0.952,2.553 2.227,2.553 1.468,0 2.128,-1.103 2.128,-2.491 0,-0.103 -0.012,-0.223 -0.012,-0.294"
         style="fill:#606164;fill-opacity:1;fill-rule:nonzero;stroke:none"
         id="path3117"
         inkscape:connector-curvature="0" /></g><g
       id="g3119"
       transform="translate(167.9801,17.1689)"><path
         d="m 0,0 0,3.201 c 0,0.425 -0.183,0.718 -0.628,0.718 -0.385,0 -0.76,-0.242 -1.113,-0.618 l 0,-3.301 -1.217,0 0,4.892 1.034,0 0.11,-0.689 c 0.455,0.436 0.972,0.79 1.631,0.79 0.91,0 1.396,-0.557 1.396,-1.469 L 1.213,0 0,0 z"
         style="fill:#606164;fill-opacity:1;fill-rule:nonzero;stroke:none"
         id="path3121"
         inkscape:connector-curvature="0" /></g><g
       id="g3123"
       transform="translate(172.272,17.0886)"><path
         d="m 0,0 c -0.963,0 -1.61,0.354 -1.61,1.469 l 0,2.51 -0.689,0 0,0.994 0.689,0 0,1.549 1.195,0.182 0,-1.731 1.002,0 0.151,-0.994 -1.153,0 0,-2.308 c 0,-0.394 0.182,-0.608 0.648,-0.608 0.142,0 0.273,0.01 0.384,0.041 L 0.769,0.08 C 0.578,0.04 0.353,0 0,0"
         style="fill:#606164;fill-opacity:1;fill-rule:nonzero;stroke:none"
         id="path3125"
         inkscape:connector-curvature="0" /></g></g></g><g
   id="g3127"><g
     id="g3129"><g
       id="g3135"><g
         id="g3137"><path
           d="M 69.844,59.263 69.846,47.062 C 58.223,44.398 47.17,41.53 47.17,41.53 l 0,0 -0.02,12.635 c 0,0 -3.988,-0.785 -8.144,-2.037 l 0,0 0,-12.659 -7.31,-1.801 c -1.554,4.975 -5.601,8.207 -10.549,8.207 l 0,0 c -4.947,0 -8.621,-1.311 -10.604,-2.15 l 0,0 c 0,0 0.31,-1.116 0.798,-2.363 l 0,0 c 0.488,-1.245 0.993,-2.275 0.993,-2.275 l 0,0 c 1.819,0.828 4.572,1.724 7.306,1.724 l 0,0 c 2.679,0 5.013,-2.036 5.013,-4.873 l 0,0 C 15.008,33.759 8.883,30.686 8.883,25.56 l 0,0 c 0,-5.851 4.173,-8.877 12.319,-8.877 l 0,0 c 4.85,0 8.677,0.839 11.022,2.087 l 0,0 -0.012,14.085 6.785,2.3 0.009,-10.223 c 0,-4.325 2.559,-8.138 8.463,-8.138 l 0,0 c 1.875,0 3.33,0.471 4.023,0.785 l 0,0 c 0,0 0.094,1.006 0.094,2.528 l 0,0 c 0,1.522 -0.094,2.478 -0.094,2.478 l 0,0 C 50.799,22.375 50.44,22.271 49.77,22.271 l 0,0 c -1.833,0 -2.616,1.152 -2.616,3.289 l 0,0 -0.005,12.366 c 0,0 5.749,2.02 11.309,3.852 l 0,0 c -3.84,-2.101 -5.107,-8.006 -5.107,-11.444 l 0,0 c 0,-9.398 5.316,-13.651 13.832,-13.651 l 0,0 c 4.848,0 8.132,1.013 10.753,2.087 l 0,0 0,42.516 c 0,0 -4.118,-0.778 -8.092,-2.023 M 61.397,31.46 c 0,4.762 3.477,8.567 8.446,9.966 l 0,0 0,-19.155 C 69.18,22.025 68.433,21.858 67.34,21.858 l 0,0 c -4.12,0 -5.943,3.499 -5.943,9.602 M 16.516,24.932 c 0,2.063 2.341,3.675 8.086,5.335 l 0,0 0,-8.518 c -0.74,-0.36 -1.792,-0.572 -2.988,-0.572 l 0,0 c -3.224,0 -5.098,1.082 -5.098,3.755"
           style="fill:url(#linearGradient3139);stroke:none"
           id="path3147"
           inkscape:connector-curvature="0" /></g></g></g></g><g
   transform="matrix(1,0,0,-1,87.2036,38.9844)"
   id="text3149"><path
     d="M 5.7599258,-0.46999395 5.5799282,-1.629979 C 5.3157596,-1.4474799 5.0390968,-1.3024819 4.7499388,-1.1949848 4.4607714,-1.0874852 4.154109,-1.0324859 3.8299507,-1.0299867 3.2032889,-1.0370689 2.711629,-1.2528993 2.3549695,-1.6774784 1.9983054,-2.1020542 1.8166413,-2.6928793 1.8099767,-3.4499556 c 0.00521,-0.7531112 0.1822873,-1.3443531 0.5312432,-1.7737274 0.3489512,-0.4293638 0.8385278,-0.6481107 1.468731,-0.6562413 0.3337416,0.00417 0.6362374,0.063338 0.9074885,0.1774979 0.2712417,0.1141707 0.5187382,0.2583353 0.7424903,0.4324942 L 5.6499273,-6.5199161 C 5.3968,-6.6807406 5.1155538,-6.8040722 4.8061879,-6.8899113 4.4968123,-6.9757366 4.1480673,-7.0190693 3.7599516,-7.0199096 c -1.0168647,0.015423 -1.8181037,0.3445857 -2.4037193,0.9874874 -0.58561828,0.6429138 -0.88436406,1.5070684 -0.89623822,2.5924665 0.0108329,1.0889466 0.30416213,1.9510179 0.87998862,2.58621647 0.5758239,0.63520026 1.3691462,0.95977916 2.3799694,0.97373769 0.3968657,-0.002708 0.7681105,-0.05729096 1.1137356,-0.16374797 0.3456154,-0.10645693 0.6543612,-0.24853826 0.9262381,-0.42624444 z"
     style="font-size:10px;font-variant:normal;font-weight:bold;font-stretch:normal;writing-mode:lr-tb;fill:#f05938;fill-opacity:1;fill-rule:nonzero;stroke:none;font-family:Whitney Semibold;-inkscape-font-specification:Whitney Semibold"
     id="path3318"
     inkscape:connector-curvature="0" /><path
     d="m 12.569919,0 0,-6.8999112 -1.329983,0 0,2.7299649 -2.9299625,0 0,-2.7299649 -1.3299829,0 0,6.8999112 1.3299829,0 0,-2.9899615 2.9299625,0 0,2.9899615 z"
     style="font-size:10px;font-variant:normal;font-weight:bold;font-stretch:normal;writing-mode:lr-tb;fill:#f05938;fill-opacity:1;fill-rule:nonzero;stroke:none;font-family:Whitney Semibold;-inkscape-font-specification:Whitney Semibold"
     id="path3320"
     inkscape:connector-curvature="0" /><path
     d="m 13.509997,0 1.329983,0 0.599993,-1.7499775 2.609966,0 0.659992,1.8199766 1.329982,-0.23999691 -2.529967,-6.75991299 -1.409982,0 z m 3.239959,-5.4999292 0.929988,2.6699656 -1.879976,0 z"
     style="font-size:10px;font-variant:normal;font-weight:bold;font-stretch:normal;writing-mode:lr-tb;fill:#f05938;fill-opacity:1;fill-rule:nonzero;stroke:none;font-family:Whitney Semibold;-inkscape-font-specification:Whitney Semibold"
     id="path3322"
     inkscape:connector-curvature="0" /><path
     d="M 26.059925,-0.17999768 24.189949,-2.8899628 c 0.434574,-0.1489535 0.775402,-0.3835337 1.022487,-0.7037412 0.247075,-0.3202002 0.372907,-0.7322778 0.377495,-1.2362338 -0.0067,-0.6724859 -0.225835,-1.1849788 -0.657491,-1.5374804 -0.431666,-0.3524888 -1.035824,-0.5299862 -1.812477,-0.532493 l -2.139972,0 0,6.8999112 1.319983,0 0,-2.639966 0.559992,0 1.799977,2.7099651 z M 24.289948,-4.7599387 c -0.0042,0.3612497 -0.123336,0.6362458 -0.357495,0.8249892 -0.234168,0.1887513 -0.55833,0.28375 -0.972488,0.2849965 l -0.669991,0 0,-2.1899718 0.72999,0 c 0.416033,0.00188 0.731446,0.09563 0.946238,0.2812464 0.214785,0.1856281 0.3227,0.4518744 0.323746,0.7987397 z"
     style="font-size:10px;font-variant:normal;font-weight:bold;font-stretch:normal;writing-mode:lr-tb;fill:#f05938;fill-opacity:1;fill-rule:nonzero;stroke:none;font-family:Whitney Semibold;-inkscape-font-specification:Whitney Semibold"
     id="path3324"
     inkscape:connector-curvature="0" /><path
     d="m 30.719942,0 -0.179998,-1.1799848 -2.29997,0 0,-5.7199264 -1.329983,0 0,6.8999112 z"
     style="font-size:10px;font-variant:normal;font-weight:bold;font-stretch:normal;writing-mode:lr-tb;fill:#f05938;fill-opacity:1;fill-rule:nonzero;stroke:none;font-family:Whitney Semibold;-inkscape-font-specification:Whitney Semibold"
     id="path3326"
     inkscape:connector-curvature="0" /><path
     d="m 37.889911,-3.4599555 c -0.01084,-1.0806066 -0.301669,-1.9418447 -0.872489,-2.5837169 -0.570831,-0.6418602 -1.356653,-0.9706055 -2.357469,-0.9862371 -0.997282,0.01584 -1.785187,0.3466689 -2.36372,0.9924872 -0.578535,0.6458304 -0.873947,1.5116517 -0.886238,2.5974666 0.01208,1.0806133 0.305412,1.9418513 0.879989,2.5837165 0.574573,0.64186694 1.357896,0.97061245 2.349969,0.98623753 1.001649,-0.0164581 1.790805,-0.3485369 2.36747,-0.99623725 0.576652,-0.64769858 0.870815,-1.51226998 0.882488,-2.59371658 z m -1.339982,0.01 c -0.0048,0.7639511 -0.172712,1.366026 -0.503744,1.8062265 -0.331042,0.4402039 -0.796452,0.66478419 -1.396232,0.67374159 -0.594995,-0.008957 -1.057489,-0.23353749 -1.387482,-0.67374139 -0.329998,-0.4402007 -0.497496,-1.0422756 -0.502494,-1.8062267 0.005,-0.7639443 0.172496,-1.3660194 0.502494,-1.806227 0.329993,-0.440197 0.792487,-0.6647772 1.387482,-0.6737411 0.595405,0.00896 1.059565,0.2335443 1.392482,0.6737413 0.332907,0.4402075 0.502071,1.0422825 0.507494,1.8062268 z"
     style="font-size:10px;font-variant:normal;font-weight:bold;font-stretch:normal;writing-mode:lr-tb;fill:#f05938;fill-opacity:1;fill-rule:nonzero;stroke:none;font-family:Whitney Semibold;-inkscape-font-specification:Whitney Semibold"
     id="path3328"
     inkscape:connector-curvature="0" /><path
     d="m 44.189923,-5.749926 -0.189997,-1.1499852 -5.359931,0 0,1.1499852 2.079973,0 0,5.749926 1.319983,0 0,-5.749926 z"
     style="font-size:10px;font-variant:normal;font-weight:bold;font-stretch:normal;writing-mode:lr-tb;fill:#f05938;fill-opacity:1;fill-rule:nonzero;stroke:none;font-family:Whitney Semibold;-inkscape-font-specification:Whitney Semibold"
     id="path3330"
     inkscape:connector-curvature="0" /><path
     d="m 50.239926,-5.749926 -0.189997,-1.1499852 -5.359931,0 0,1.1499852 2.079973,0 0,5.749926 1.319983,0 0,-5.749926 z"
     style="font-size:10px;font-variant:normal;font-weight:bold;font-stretch:normal;writing-mode:lr-tb;fill:#f05938;fill-opacity:1;fill-rule:nonzero;stroke:none;font-family:Whitney Semibold;-inkscape-font-specification:Whitney Semibold"
     id="path3332"
     inkscape:connector-curvature="0" /><path
     d="m 55.289938,0 0,-1.1199856 -2.799964,0 0,-1.8999755 2.259971,0 -0.179997,-1.1099857 -2.079974,0 0,-1.6499788 2.699966,0 0,-1.1199856 -4.009949,0 0,6.8999112 z"
     style="font-size:10px;font-variant:normal;font-weight:bold;font-stretch:normal;writing-mode:lr-tb;fill:#f05938;fill-opacity:1;fill-rule:nonzero;stroke:none;font-family:Whitney Semibold;-inkscape-font-specification:Whitney Semibold"
     id="path3334"
     inkscape:connector-curvature="0" /><path
     d="m 57.979998,0 1.329983,0 0.599992,-1.7499775 2.609966,0 0.659992,1.8199766 1.329983,-0.23999691 -2.529968,-6.75991299 -1.409982,0 z m 3.239958,-5.4999292 0.929988,2.6699656 -1.879976,0 z"
     style="font-size:10px;font-variant:normal;font-weight:bold;font-stretch:normal;writing-mode:lr-tb;fill:#f05938;fill-opacity:1;fill-rule:nonzero;stroke:none;font-family:Whitney Semibold;-inkscape-font-specification:Whitney Semibold"
     id="path3336"
     inkscape:connector-curvature="0" /><path
     d="M 70.529926,-0.17999768 68.65995,-2.8899628 c 0.434574,-0.1489535 0.775402,-0.3835337 1.022487,-0.7037412 0.247075,-0.3202002 0.372907,-0.7322778 0.377495,-1.2362338 -0.0067,-0.6724859 -0.225835,-1.1849788 -0.657491,-1.5374804 -0.431665,-0.3524888 -1.035824,-0.5299862 -1.812477,-0.532493 l -2.139972,0 0,6.8999112 1.319983,0 0,-2.639966 0.559993,0 1.799976,2.7099651 z M 68.759949,-4.7599387 c -0.0042,0.3612497 -0.123335,0.6362458 -0.357495,0.8249892 -0.234167,0.1887513 -0.55833,0.28375 -0.972488,0.2849965 l -0.669991,0 0,-2.1899718 0.729991,0 c 0.416033,0.00188 0.731445,0.09563 0.946237,0.2812464 0.214785,0.1856281 0.3227,0.4518744 0.323746,0.7987397 z"
     style="font-size:10px;font-variant:normal;font-weight:bold;font-stretch:normal;writing-mode:lr-tb;fill:#f05938;fill-opacity:1;fill-rule:nonzero;stroke:none;font-family:Whitney Semibold;-inkscape-font-specification:Whitney Semibold"
     id="path3338"
     inkscape:connector-curvature="0" /><path
     d="m 75.489939,0 0,-1.1199856 -2.799964,0 0,-1.8999755 2.259971,0 -0.179998,-1.1099857 -2.079973,0 0,-1.6499788 2.699966,0 0,-1.1199856 -4.009949,0 0,6.8999112 z"
     style="font-size:10px;font-variant:normal;font-weight:bold;font-stretch:normal;writing-mode:lr-tb;fill:#f05938;fill-opacity:1;fill-rule:nonzero;stroke:none;font-family:Whitney Semibold;-inkscape-font-specification:Whitney Semibold"
     id="path3340"
     inkscape:connector-curvature="0" /><path
     d="m 76.039999,0 1.329983,0 0.599992,-1.7499775 2.609967,0 0.659991,1.8199766 1.329983,-0.23999691 -2.529967,-6.75991299 -1.409982,0 z m 3.239958,-5.4999292 0.929988,2.6699656 -1.879975,0 z"
     style="font-size:10px;font-variant:normal;font-weight:bold;font-stretch:normal;writing-mode:lr-tb;fill:#f05938;fill-opacity:1;fill-rule:nonzero;stroke:none;font-family:Whitney Semibold;-inkscape-font-specification:Whitney Semibold"
     id="path3342"
     inkscape:connector-curvature="0" /><path
     d="M 90.679924,-0.46999395 90.499926,-1.629979 c -0.264168,0.1824991 -0.540831,0.3274971 -0.829989,0.4349942 -0.289167,0.1074996 -0.59583,0.1624989 -0.919988,0.1649981 -0.626662,-0.00708 -1.118322,-0.2229126 -1.474981,-0.6474917 -0.356664,-0.4245758 -0.538329,-1.0154009 -0.544993,-1.7724772 0.0052,-0.7531112 0.182287,-1.3443531 0.531243,-1.7737274 0.348951,-0.4293638 0.838528,-0.6481107 1.468731,-0.6562413 0.333742,0.00417 0.636238,0.063338 0.907489,0.1774979 0.271241,0.1141707 0.518738,0.2583353 0.74249,0.4324942 l 0.189997,-1.2499839 c -0.253127,-0.1608245 -0.534373,-0.2841561 -0.843739,-0.3699952 -0.309375,-0.085825 -0.658121,-0.129158 -1.046236,-0.1299983 -1.016865,0.015423 -1.818104,0.3445857 -2.40372,0.9874874 -0.585618,0.6429138 -0.884364,1.5070684 -0.896238,2.5924665 0.01083,1.0889466 0.304162,1.9510179 0.879989,2.58621647 0.575824,0.63520026 1.369146,0.95977916 2.379969,0.97373769 0.396866,-0.002708 0.768111,-0.05729096 1.113736,-0.16374797 0.345615,-0.10645693 0.654361,-0.24853826 0.926238,-0.42624444 z"
     style="font-size:10px;font-variant:normal;font-weight:bold;font-stretch:normal;writing-mode:lr-tb;fill:#f05938;fill-opacity:1;fill-rule:nonzero;stroke:none;font-family:Whitney Semibold;-inkscape-font-specification:Whitney Semibold"
     id="path3344"
     inkscape:connector-curvature="0" /><path
     d="m 97.489917,0 0,-6.8999112 -1.329983,0 0,2.7299649 -2.929962,0 0,-2.7299649 -1.329983,0 0,6.8999112 1.329983,0 0,-2.9899615 2.929962,0 0,2.9899615 z"
     style="font-size:10px;font-variant:normal;font-weight:bold;font-stretch:normal;writing-mode:lr-tb;fill:#f05938;fill-opacity:1;fill-rule:nonzero;stroke:none;font-family:Whitney Semibold;-inkscape-font-specification:Whitney Semibold"
     id="path3346"
     inkscape:connector-curvature="0" /><path
     d="m 98.429999,0 1.329982,0 0.599989,-1.7499775 2.60997,0 0.65999,1.8199766 1.32998,-0.23999691 -2.52996,-6.75991299 -1.40998,0 z m 3.239961,-5.4999292 0.92998,2.6699656 -1.87997,0 z"
     style="font-size:10px;font-variant:normal;font-weight:bold;font-stretch:normal;writing-mode:lr-tb;fill:#f05938;fill-opacity:1;fill-rule:nonzero;stroke:none;font-family:Whitney Semibold;-inkscape-font-specification:Whitney Semibold"
     id="path3348"
     inkscape:connector-curvature="0" /><path
     d="m 110.44993,-4.7799385 c -0.007,-0.696444 -0.23084,-1.22352 -0.67249,-1.5812297 -0.44167,-0.3576969 -1.06082,-0.5372777 -1.85748,-0.538743 l -2.01997,0 0,6.8999112 1.31998,0 0,-2.5399673 0.58999,0 c 0.80124,-2.059e-4 1.43873,-0.1872867 1.91248,-0.561243 0.47374,-0.3739501 0.71623,-0.9335256 0.72749,-1.6787282 z m -1.29998,0.03 c -0.003,0.3931242 -0.12188,0.6818701 -0.35625,0.8662386 -0.23437,0.1843762 -0.56562,0.2756251 -0.99374,0.2737467 l -0.57999,0 0,-2.2299713 0.62999,0 c 0.42604,4.225e-4 0.74895,0.092088 0.96874,0.2749963 0.21979,0.1829196 0.3302,0.4545826 0.33125,0.8149897 z"
     style="font-size:10px;font-variant:normal;font-weight:bold;font-stretch:normal;writing-mode:lr-tb;fill:#f05938;fill-opacity:1;fill-rule:nonzero;stroke:none;font-family:Whitney Semibold;-inkscape-font-specification:Whitney Semibold"
     id="path3350"
     inkscape:connector-curvature="0" /><path
     d="m 116.55993,-5.749926 -0.19,-1.1499852 -5.35993,0 0,1.1499852 2.07997,0 0,5.749926 1.31998,0 0,-5.749926 z"
     style="font-size:10px;font-variant:normal;font-weight:bold;font-stretch:normal;writing-mode:lr-tb;fill:#f05938;fill-opacity:1;fill-rule:nonzero;stroke:none;font-family:Whitney Semibold;-inkscape-font-specification:Whitney Semibold"
     id="path3352"
     inkscape:connector-curvature="0" /><path
     d="m 121.60993,0 0,-1.1199856 -2.79996,0 0,-1.8999755 2.25997,0 -0.18,-1.1099857 -2.07997,0 0,-1.6499788 2.69997,0 0,-1.1199856 -4.00995,0 0,6.8999112 z"
     style="font-size:10px;font-variant:normal;font-weight:bold;font-stretch:normal;writing-mode:lr-tb;fill:#f05938;fill-opacity:1;fill-rule:nonzero;stroke:none;font-family:Whitney Semibold;-inkscape-font-specification:Whitney Semibold"
     id="path3354"
     inkscape:connector-curvature="0" /><path
     d="m 127.75992,-0.17999768 -1.86997,-2.70996512 c 0.43457,-0.1489535 0.7754,-0.3835337 1.02248,-0.7037412 0.24708,-0.3202002 0.37291,-0.7322778 0.3775,-1.2362338 -0.007,-0.6724859 -0.22584,-1.1849788 -0.65749,-1.5374804 -0.43167,-0.3524888 -1.03583,-0.5299862 -1.81248,-0.532493 l -2.13997,0 0,6.8999112 1.31998,0 0,-2.639966 0.55999,0 1.79998,2.7099651 z m -1.76998,-4.57994102 c -0.004,0.3612497 -0.12333,0.6362458 -0.35749,0.8249892 -0.23417,0.1887513 -0.55833,0.28375 -0.97249,0.2849965 l -0.66999,0 0,-2.1899718 0.72999,0 c 0.41603,0.00188 0.73145,0.09563 0.94624,0.2812464 0.21478,0.1856281 0.3227,0.4518744 0.32374,0.7987397 z"
     style="font-size:10px;font-variant:normal;font-weight:bold;font-stretch:normal;writing-mode:lr-tb;fill:#f05938;fill-opacity:1;fill-rule:nonzero;stroke:none;font-family:Whitney Semibold;-inkscape-font-specification:Whitney Semibold"
     id="path3356"
     inkscape:connector-curvature="0" /></g>
</g></svg>